<svg id="Camada_1" data-name="Camada 1" xmlns="http://www.w3.org/2000/svg" viewBox="0 0 312 77"><polygon points="7.25 68.91 22.34 55.27 69.53 48.65 7.25 68.91"/><polygon points="3.51 26.76 21 31.09 21 53.97 4.95 68.2 3.51 26.76"/><polygon points="4.19 25.17 20.93 11.16 74.67 42.24 4.19 25.17"/><path d="M87.69,59.72c-1.68-1.86-2.52-4.54-2.52-8V49.24h6.39v2.95q0,4.19,3.5,4.18a3.33,3.33,0,0,0,2.62-1,5,5,0,0,0,.89-3.29,9.13,9.13,0,0,0-1.23-4.77,23,23,0,0,0-4.55-4.95A27,27,0,0,1,87,35.68,13.54,13.54,0,0,1,85.29,29q0-5.1,2.58-7.9t7.5-2.79q4.86,0,7.35,2.79t2.49,8v1.79h-6.4V28.65A4.9,4.9,0,0,0,98,25.42a3.1,3.1,0,0,0-2.52-1c-2.25,0-3.38,1.38-3.38,4.12a8.16,8.16,0,0,0,1.26,4.37,24.34,24.34,0,0,0,4.58,4.92,25,25,0,0,1,5.84,6.7,14.79,14.79,0,0,1,1.6,7.07c0,3.52-.87,6.23-2.61,8.11s-4.27,2.83-7.59,2.83S89.37,61.59,87.69,59.72Z"/><path d="M113.81,18.87h18.45V25H120.58V36.39h9.28v6.15h-9.28V55.76h11.68V61.9H113.81Z"/><path d="M155,61.78a12.4,12.4,0,0,1-4.48.74q-5,0-7.63-2.83c-1.76-1.88-2.64-4.55-2.64-8V29.07q0-5.16,2.64-8t7.63-2.82q5,0,7.62,2.82t2.64,8V51.7a12.21,12.21,0,0,1-1.9,7.07,1.72,1.72,0,0,0,.92.8,5.45,5.45,0,0,0,1.6.18h1V65.9h-1.78Q156.06,65.9,155,61.78Zm-1-9.65V28.65q0-4.24-3.5-4.25T147,28.65V52.13q0,4.24,3.51,4.24T154,52.13Z"/><path d="M172.28,59.72c-1.72-1.86-2.58-4.54-2.58-8V18.87h6.76V52.19a4.72,4.72,0,0,0,.89,3.2,3.81,3.81,0,0,0,5.1,0,4.67,4.67,0,0,0,.9-3.2V18.87h6.51V51.7c0,3.48-.86,6.16-2.58,8s-4.22,2.8-7.5,2.8S174,61.59,172.28,59.72Z"/><path d="M199.27,18.87h18.44V25H206V36.39h9.28v6.15H206V55.76h11.68V61.9H199.27Z"/><path d="M226.19,18.87h8.49l6.58,25.76h.12V18.87h6v43h-6.94l-8.12-31.41h-.12V61.9h-6Z"/><path d="M259.18,59.75q-2.56-2.76-2.56-7.81V28.83q0-5,2.56-7.81t7.4-2.76q4.86,0,7.41,2.76t2.55,7.81v4.55h-6.39v-5q0-4-3.38-4c-2.26,0-3.38,1.33-3.38,4v24c0,2.62,1.12,3.93,3.38,3.93s3.38-1.31,3.38-3.93V45.86h6.39v6.08q0,5.06-2.55,7.81t-7.41,2.77Q261.74,62.52,259.18,59.75Z"/><path d="M285.21,18.87h18.44V25H292V36.39h9.29v6.15H292V55.76h11.68V61.9H285.21Z"/></svg>